<?xml version="1.0" encoding="UTF-8" standalone="no"?>
<!-- Created with Inkscape (http://www.inkscape.org/) -->

<svg
   xmlns:dc="http://purl.org/dc/elements/1.1/"
   xmlns:cc="http://creativecommons.org/ns#"
   xmlns:rdf="http://www.w3.org/1999/02/22-rdf-syntax-ns#"
   xmlns:svg="http://www.w3.org/2000/svg"
   xmlns="http://www.w3.org/2000/svg"
   xmlns:sodipodi="http://sodipodi.sourceforge.net/DTD/sodipodi-0.dtd"
   xmlns:inkscape="http://www.inkscape.org/namespaces/inkscape"
   width="192"
   height="192"
   viewBox="0 0 50.799999 50.799999"
   version="1.1"
   id="svg8"
   inkscape:version="0.92.2 (30a58d1, 2017-08-07)"
   sodipodi:docname="whitchway_192_192.svg">
  <defs
     id="defs2" />
  <sodipodi:namedview
     id="base"
     pagecolor="#ffffff"
     bordercolor="#666666"
     borderopacity="1.0"
     inkscape:pageopacity="0.0"
     inkscape:pageshadow="2"
     inkscape:zoom="1.4"
     inkscape:cx="308.95675"
     inkscape:cy="48.330924"
     inkscape:document-units="mm"
     inkscape:current-layer="layer1"
     showgrid="false"
     units="px"
     inkscape:snap-to-guides="true"
     inkscape:window-width="1853"
     inkscape:window-height="1025"
     inkscape:window-x="67"
     inkscape:window-y="27"
     inkscape:window-maximized="1" />
  <metadata
     id="metadata5">
    <rdf:RDF>
      <cc:Work
         rdf:about="">
        <dc:format>image/svg+xml</dc:format>
        <dc:type
           rdf:resource="http://purl.org/dc/dcmitype/StillImage" />
        <dc:title></dc:title>
      </cc:Work>
    </rdf:RDF>
  </metadata>
  <g
     inkscape:label="Ebene 1"
     inkscape:groupmode="layer"
     id="layer1"
     transform="translate(0,-246.20002)">
    <g
       id="g4524"
       transform="matrix(1.1785828,-2.5685611,2.5685611,1.1785828,-692.50003,-7.2965986)">
      <g
         transform="translate(0,1.0583333)"
         id="text4506"
         style="font-style:normal;font-variant:normal;font-weight:bold;font-stretch:normal;font-size:10.58333302px;line-height:1.25;font-family:sans-serif;-inkscape-font-specification:'sans-serif Bold';letter-spacing:0px;word-spacing:0px;fill:#000000;fill-opacity:1;stroke:none;stroke-width:0.26458332"
         aria-label="t
">
        <path
           sodipodi:nodetypes="ccccccccccccc"
           inkscape:connector-curvature="0"
           id="path4514"
           style="font-style:normal;font-variant:normal;font-weight:bold;font-stretch:normal;font-family:sans-serif;-inkscape-font-specification:'sans-serif Bold';stroke-width:0.26458332"
           d="m 16.272861,263.10924 v 1.64331 h 1.90686 v 1.32292 l -1.859613,-0.0236 -0.02362,2.40738 c 0.123676,0.60414 -1.808739,0.85378 -1.840231,0.23794 l -0.03341,-2.62167 h -0.919841 v -1.32292 h 0.919841 v -1.64331 z" />
      </g>
      <g
         transform="translate(-13.363477,-6.6149208)"
         id="text4512"
         style="font-style:normal;font-variant:normal;font-weight:bold;font-stretch:normal;font-size:10.58333302px;line-height:1.25;font-family:sans-serif;-inkscape-font-specification:'sans-serif Bold';letter-spacing:0px;word-spacing:0px;fill:#000000;fill-opacity:1;stroke:none;stroke-width:0.26458332"
         aria-label="h">
        <path
           sodipodi:nodetypes="ccccscccscsccccccsccc"
           inkscape:connector-curvature="0"
           id="path4517"
           style="font-style:normal;font-variant:normal;font-weight:bold;font-stretch:normal;font-family:sans-serif;-inkscape-font-specification:'sans-serif Bold';stroke-width:0.26458332"
           d="m 33.635013,282.18355 v 3.52434 h -1.860352 v -0.57361 -2.11357 c 0,-0.50643 -0.01206,-0.85438 -0.03617,-1.04386 -0.02067,-0.18948 -0.05857,-0.32901 -0.113688,-0.41858 -0.07235,-0.12058 -0.170533,-0.2136 -0.294556,-0.27905 -0.124023,-0.0689 -0.265272,-0.10336 -0.423747,-0.10336 -0.385851,0 -0.689019,0.14986 -0.909505,0.44959 -0.220486,0.29628 -0.330729,0.70797 -0.330729,1.23506 v 2.84738 H 27.81625 v -11.78263 l 1.850016,-0.0668 v 6.90918 c 0.279053,-0.33762 0.575331,-0.58567 0.888834,-0.74414 0.313504,-0.16192 0.659736,-0.24288 1.038697,-0.24288 0.668348,0 1.174777,0.20498 1.519287,0.61495 0.347955,0.40997 0.521932,1.00597 0.521932,1.788 z" />
      </g>
    </g>
  </g>
</svg>
